<svg width="160" height="160" viewBox="0 0 160 160" fill="none" xmlns="http://www.w3.org/2000/svg">
  <rect width="160" height="160" rx="40" fill="#08111B"/>
  <path d="M39 52C39 42.6112 46.6112 35 56 35H110V55H61C57.6863 55 55 57.6863 55 61V66C55 69.3137 57.6863 72 61 72H94C108.912 72 121 84.0883 121 99V104C121 118.912 108.912 131 94 131H39V111H89C92.3137 111 95 108.314 95 105V100C95 96.6863 92.3137 94 89 94H66C51.0883 94 39 81.9117 39 67V52Z" fill="#F75C03"/>
  <circle cx="116" cy="44" r="10" fill="#1FB6AA"/>
</svg>
