<svg width="420" height="140" viewBox="0 0 420 140" fill="none" xmlns="http://www.w3.org/2000/svg">
  <rect width="420" height="140" rx="32" fill="#08111B"/>
  <path d="M34 47C34 39.268 40.268 33 48 33H98V49H53C50.7909 49 49 50.7909 49 53V58C49 60.2091 50.7909 62 53 62H82C94.1503 62 104 71.8497 104 84V88C104 100.15 94.1503 110 82 110H34V94H77C79.2091 94 81 92.2091 81 90V85C81 82.7909 79.2091 81 77 81H56C43.8497 81 34 71.1503 34 59V47Z" fill="#F75C03"/>
  <circle cx="107" cy="42" r="8" fill="#1FB6AA"/>
  <path d="M142 96V44H180V57H157V64H178V77H157V83H181V96H142Z" fill="white"/>
  <path d="M188 96V44H204V82H226V96H188Z" fill="white"/>
  <path d="M232 96V44H248V82H270V96H232Z" fill="white"/>
  <path d="M274 96V44H290V82H312V96H274Z" fill="white"/>
  <path d="M318 96V44H335L352 72V44H367V96H351L333 67V96H318Z" fill="white"/>
  <path d="M375 96V44H391V96H375Z" fill="#1FB6AA"/>
</svg>
